<svg id="Laag_1" data-name="Laag 1" xmlns="http://www.w3.org/2000/svg" xmlns:xlink="http://www.w3.org/1999/xlink" viewBox="0 0 850.91 622"><defs><style>.cls-1{fill:none;}.cls-2{fill:#8b4513;}.cls-3{fill:#1e1e3a;}.cls-4{clip-path:url(#clip-path);}</style><clipPath id="clip-path"><path class="cls-1" d="M278.78,144.35C219.2,280,215.32,524.7,369.73,476.79S610.51,330,599.26,191.5C586.91,39.3,500.9-1,421.39,6,356.69,11.63,309.39,74.66,278.78,144.35Z"/></clipPath></defs><title>Tekengebied 14</title><path class="cls-2" d="M217.39,66.38C-.27,138.13-66.19,296.44,117.25,404S283.38,703.8,437.53,549.05,863.26,307.54,579,134.92C498.62,86.13,329.17,29.53,217.39,66.38Z"/><path class="cls-3" d="M562,523.92c120.92,61.94,304.92,82.4,274.54-46.95S721.84,258.87,592,262.72s-205.57,72.71-182.43,121.8S499.92,492.1,562,523.92Z"/><g class="cls-4"><image width="493" height="660" transform="translate(238.14 5.98) scale(0.74 0.72)" xlink:href="foto.png"/></g></svg>