<svg id="Laag_1" data-name="Laag 1" xmlns="http://www.w3.org/2000/svg" viewBox="0 0 358.91 160"><defs><style>.cls-1{fill:#fff;}</style></defs><title>Tekengebied 13</title><path class="cls-1" d="M26.22,150.66c13.62,0,26.8-4.29,39-10.11,13.31-6.34,25.65-14.58,37.61-23.15,6.49-4.65,12.87-9.44,19.29-14.18l-1-1c-5.81,9-11.64,18.26-14.63,28.68a.76.76,0,0,0,1.26.73,197.87,197.87,0,0,1,40.65-33l-1-1-7.45,14a.75.75,0,0,0,1.18.9,76.32,76.32,0,0,1,28.2-18.29l-.92-.92-6.9,17.5c-.34.86.91,1.19,1.37.58a77.35,77.35,0,0,1,17.53-17c6.2-4.29,13.3-7.76,20.9-8.39a.75.75,0,0,0,0-1.5,14.82,14.82,0,0,0-15.19,14.25.76.76,0,0,0,1.13.64,48.23,48.23,0,0,0,20-15.75l-1.37-.58a178.92,178.92,0,0,1-31.32,56.7c-.49.6.18,1.73.91,1.17A548.19,548.19,0,0,0,227.52,96q7-6.9,13.85-14.05a.75.75,0,0,0-.33-1.25c-7.12-1.44-16.6,4.4-13.78,12.56,1.39,4,5.18,6.7,9.16,7.75,5.47,1.44,10.62.75,15.91-1C271.61,93.82,290,85.17,308.8,77.75a330,330,0,0,1,35.62-11.92.75.75,0,0,0-.4-1.44c-18.93,5.07-37,12.34-55.08,19.92-8.38,3.53-16.76,7-25.27,10.22-4.38,1.63-8.8,3.17-13.25,4.59-5,1.58-10.78,1.93-15.69-.22-4.35-1.91-8.1-6.78-5.69-11.58,2.05-4.06,7.3-6,11.6-5.13l-.33-1.26a547,547,0,0,1-50.06,46.44q-7.68,6.27-15.58,12.27l.9,1.18a181.12,181.12,0,0,0,31.71-57.36c.29-.87-.9-1.21-1.37-.58A47,47,0,0,1,186.45,98.1l1.13.65A13.3,13.3,0,0,1,201.27,86V84.5c-7.87.65-15.23,4.15-21.65,8.59a79.66,79.66,0,0,0-18.07,17.51l1.37.58,6.89-17.5a.75.75,0,0,0-.92-.92A77.91,77.91,0,0,0,140,111.43l1.18.91,7.45-14a.75.75,0,0,0-1-1,199.31,199.31,0,0,0-41,33.2l1.25.73c3-10.3,8.73-19.39,14.47-28.33.39-.6-.41-1.47-1-1-11.46,8.45-22.82,17.06-34.79,24.78S62.1,141.38,48.52,145.56a77.16,77.16,0,0,1-22.3,3.6.75.75,0,0,0,0,1.5Z"/><path class="cls-1" d="M116.81,85.21a26.4,26.4,0,0,0,2.6,3.45,6.65,6.65,0,0,0,3.32,2.21,5.76,5.76,0,0,0,4.1-1.13,7.53,7.53,0,0,0,2.86-3.7c.32-.92-1.13-1.31-1.45-.4a5.87,5.87,0,0,1-2.3,2.9,4,4,0,0,1-3.18.79,6.58,6.58,0,0,1-2.61-2.1,26.54,26.54,0,0,1-2.05-2.78c-.53-.8-1.83,0-1.29.76Z"/><path class="cls-1" d="M46.48,133A117.4,117.4,0,0,0,91.93,81.39a114.73,114.73,0,0,0,6.49-18.33.75.75,0,0,0-1.45-.4,115.87,115.87,0,0,1-35.59,57.5,111.7,111.7,0,0,1-15.66,11.52.75.75,0,0,0,.76,1.3Z"/><path class="cls-1" d="M97.74,61.61a9.93,9.93,0,0,1-3-7.54c.17-3.06,1.73-5.84,2.95-8.58a60.43,60.43,0,0,0,4.69-17l-1.47.2c1.58,6,1.43,12.4,1.21,18.54-.2,5.29-1,11-4.7,15-.66.71.4,1.77,1.06,1.06,3.84-4.15,4.84-9.81,5.1-15.27.32-6.51.45-13.38-1.22-19.72-.24-.88-1.38-.59-1.48.2a67.16,67.16,0,0,1-5.78,19.13c-1.16,2.6-2.13,5.35-1.8,8.24a11.51,11.51,0,0,0,3.36,6.85.75.75,0,0,0,1.06-1.06Z"/><path class="cls-1" d="M89,83.25c-9.46-5.47-10.52-17.42-11.13-27.2l-1.28.53A35.69,35.69,0,0,1,88.28,84.9c0,1,1.45,1,1.5,0A37.13,37.13,0,0,0,77.64,55.52a.76.76,0,0,0-1.28.53c.65,10.34,1.9,22.73,11.87,28.5a.75.75,0,0,0,.76-1.3Z"/><path class="cls-1" d="M82,100.48C80.41,86.63,67.42,78.26,62.8,65.7c-.28-.75-1.49-.69-1.48.2A57.24,57.24,0,0,0,66.68,89c2.65,5.67,6.92,11.93,13.76,12.41,1,.07,1-1.43,0-1.5C73.88,99.47,70,92.8,67.6,87.44A55.34,55.34,0,0,1,62.82,65.9l-1.47.2c2.31,6.28,6.54,11.48,10.51,16.77s7.87,10.91,8.64,17.61c.1.94,1.61,1,1.5,0Z"/><path class="cls-1" d="M91.33,83c6.54-7.86,14.87-13.63,23.3-19.27l-1.11-.85A25.92,25.92,0,0,1,91.76,81.07c-1,.1-1,1.6,0,1.5A27.46,27.46,0,0,0,115,63.3a.76.76,0,0,0-1.1-.85C105.34,68.16,96.89,74,90.27,82c-.62.73.44,1.8,1.06,1.06Z"/><path class="cls-1" d="M81.55,101.49c6.66-6.72,17.22-7.23,23.8-14.09l-1.25-.73c-1.87,4.53-4.2,9.16-8,12.4a14.53,14.53,0,0,1-11.29,3.51c-.56-.06-3.88-1-3.91-1l-.64.37.25,0c.95-.12,1-1.62,0-1.5a1.19,1.19,0,0,0-.72,2.13c1.08,1,3.21,1.26,4.6,1.44a16,16,0,0,0,9.94-1.9c5.66-3.19,8.83-9.27,11.22-15.06.29-.72-.77-1.24-1.26-.73-6.56,6.84-17.12,7.36-23.8,14.09a.75.75,0,0,0,1.06,1.06Z"/><path class="cls-1" d="M245.38,36.69c6.92,9,18.17,12.87,29,14.67a124.23,124.23,0,0,0,40.36-.08,124.57,124.57,0,0,0,22.31-5.84c.9-.33.52-1.78-.4-1.45a124.15,124.15,0,0,1-38.89,7.43,124.38,124.38,0,0,1-19.58-1,72.92,72.92,0,0,1-16.56-3.94c-5.76-2.21-11.16-5.6-14.95-10.55-.58-.75-1.89,0-1.3.76Z"/><path class="cls-1" d="M245.09,35.79A17.06,17.06,0,0,1,238.27,31a28.18,28.18,0,0,1-4.06-6.77c-2.3-5.13-3.78-10.65-7.2-15.21l-1,1a61.23,61.23,0,0,1,19.93,26.65c.34.89,1.79.5,1.44-.4A63,63,0,0,0,226.74,8.79c-.59-.45-1.47.44-1,1,3.65,4.87,5.09,10.85,7.7,16.26a26.73,26.73,0,0,0,4.3,6.59,19,19,0,0,0,7,4.57c.89.37,1.28-1.08.4-1.45Z"/><path class="cls-1" d="M256.26,43.49C250.43,36.82,253.19,27,252.13,19l-1.4.37a64.89,64.89,0,0,1,5.82,11.75c1.51,4.2,2,8.61-.6,12.48-.54.8.76,1.55,1.3.75,2.62-3.88,2.47-8.44,1.05-12.75a62.15,62.15,0,0,0-6.27-13c-.36-.58-1.5-.41-1.4.38,1.13,8.5-1.64,18.43,4.57,25.53.64.73,1.7-.33,1.06-1.06Z"/><path class="cls-1" d="M255.17,44.33c-2.87-1.84-6.47,1.32-8.79,2.77L236.2,53.47a.75.75,0,0,0,.38,1.39c4,0,8.08-.16,11.75-1.88a11.9,11.9,0,0,0,4.12-3.08,19.81,19.81,0,0,0,2.77-5c.37-.88-.92-1.65-1.3-.76a20.14,20.14,0,0,1-2.4,4.57,10.7,10.7,0,0,1-3.94,3c-3.42,1.59-7.31,1.62-11,1.67l.37,1.4,9-5.59c1.44-.9,2.87-1.82,4.32-2.71,1.2-.73,2.83-1.71,4.19-.84.82.53,1.57-.77.76-1.29Z"/><path class="cls-1" d="M275.87,50.32c-2.17-4.67-6.59-8.18-8.05-13.19-.89-3-.21-6.2,0-9.28a67.51,67.51,0,0,0-.29-10.15l-1.28.53c7.11,9.1,7.56,21,7.73,32.07a.75.75,0,0,0,1.5,0c-.17-11.52-.78-23.67-8.17-33.13a.76.76,0,0,0-1.28.53,66.65,66.65,0,0,1,.27,10.38c-.24,3.15-.84,6.34.06,9.45,1.5,5.16,6,8.75,8.2,13.55.41.87,1.7.11,1.3-.76Z"/><path class="cls-1" d="M61.49,120.46C65,107.21,54.5,96.08,51.36,84a.76.76,0,0,0-1.45,0C47,96.61,47.58,113.82,60.54,120.81c.84.46,1.6-.83.75-1.29C49,112.86,48.64,96.34,51.36,84.37H49.91C53,96.12,63.4,107.24,60,120.06a.75.75,0,0,0,1.45.4Z"/><path class="cls-1" d="M62.51,121c7.37-6.87,18.93-4.42,26.93-10.2l-1.1-.85c-1.83,5-6,8.52-10.52,11.06a21.21,21.21,0,0,1-8.18,3,10.9,10.9,0,0,1-4-.32c-.3-.08-3.56-1.51-3.37-1.77.54-.8-.76-1.55-1.3-.76-1.56,2.27,4.23,4,5.58,4.25a16.72,16.72,0,0,0,9.76-1.94c5.73-2.76,11.2-7,13.46-13.14a.76.76,0,0,0-1.1-.85c-8.13,5.87-19.69,3.4-27.24,10.44-.71.66.35,1.71,1.06,1.06Z"/><path class="cls-1" d="M273.82,50.06c-12.93,1.36-23.2,9.76-32.79,17.82-.7.59.19,1.51.91,1.18,7.09-3.22,15.2-2.45,22.43-5.24a22.8,22.8,0,0,0,8.42-5.62,22.42,22.42,0,0,0,2.94-3.85c.74-1.22,1.36-2.54.38-3.79-.59-.76-1.64.31-1.06,1.06s-1.76,3.71-2.29,4.36a21.85,21.85,0,0,1-3.32,3.27,23.12,23.12,0,0,1-8.89,4.19c-6.45,1.61-13.24,1.54-19.37,4.33l.91,1.18c9.24-7.78,19.26-16.08,31.73-17.39,1-.1,1-1.6,0-1.5Z"/><path class="cls-1" d="M299.35,51.06c-1.33-2.57-3.77-4.27-5.23-6.74-1.66-2.78-2.41-6.17-3.33-9.25q-3-10.08-5.08-20.39l-1.11.85c5.15,3.89,8.35,9.65,10.58,15.58,1.09,2.9,2,5.86,2.81,8.83,1.06,3.83,2.19,7.82,1.16,11.78a.75.75,0,0,0,1.45.39c1-4,.1-8-1-11.83-.92-3.35-1.91-6.68-3.15-9.93-2.38-6.21-5.75-12-11.13-16.11-.57-.44-1.22.27-1.1.84q2.16,10.53,5.23,20.85c.89,3,1.66,6.22,3.23,9,1.46,2.56,4,4.3,5.34,6.92.44.86,1.73.1,1.29-.75Z"/><path class="cls-1" d="M299.76,50.89c-3.23,1.57-6.5,3.2-9.11,5.72a27.11,27.11,0,0,0-5.26,7.58c-2.84,5.71-4.61,12.09-8.83,17-.52.6.16,1.69.91,1.18,10.45-7.2,22.66-16.25,22.68-30.31a.75.75,0,0,0-1.5,0c0,13.47-12,22.14-21.94,29l.91,1.18c4.08-4.75,5.95-10.76,8.59-16.33a28.28,28.28,0,0,1,5-7.75c2.6-2.71,6-4.37,9.31-6,.87-.43.11-1.72-.76-1.3Z"/><path class="cls-1" d="M315,63.86a85.47,85.47,0,0,0,32.26-10.92.75.75,0,0,0-.75-1.29A83.69,83.69,0,0,1,315,62.36c-1,.12-1,1.62,0,1.5Z"/><path class="cls-1" d="M35.88,120.22a70.8,70.8,0,0,1-24.62,12.07.75.75,0,0,0,.4,1.44,72.16,72.16,0,0,0,25-12.21c.75-.58,0-1.88-.76-1.3Z"/><path class="cls-1" d="M128.69,102.6A84.49,84.49,0,0,1,154,85.23c.88-.39.11-1.68-.76-1.29a85.38,85.38,0,0,0-25.63,17.6.75.75,0,0,0,1.06,1.06Z"/><path class="cls-1" d="M181.08,115a135.37,135.37,0,0,1-16.43,23c-.64.72.42,1.78,1.06,1.06a137.15,137.15,0,0,0,16.66-23.31.75.75,0,0,0-1.29-.75Z"/></svg>