<?xml version="1.0" encoding="utf-8"?>
<!-- Generator: Adobe Illustrator 23.0.6, SVG Export Plug-In . SVG Version: 6.00 Build 0)  -->
<svg version="1.1" id="Laag_1" xmlns="http://www.w3.org/2000/svg" xmlns:xlink="http://www.w3.org/1999/xlink" x="0px" y="0px"
	 viewBox="0 0 358.91 160" style="enable-background:new 0 0 358.91 160;" xml:space="preserve">
<style type="text/css">
	.st0{fill:#FFFFFF;}
	.st1{fill:#CDD839;}
</style>
<g>
	<g>
		<g>
			<path class="st0" d="M33.04,151.03c13.69-0.05,26.93-4.31,39.19-10.16c13.31-6.35,25.65-14.58,37.61-23.16
				c6.49-4.65,12.87-9.44,19.29-14.18c-0.51-0.51-1.03-1.03-1.54-1.54c-5.83,9.08-11.66,18.32-14.66,28.78
				c-0.31,1.07,1.1,1.92,1.88,1.09c12.01-12.72,25.66-23.79,40.58-32.91c-0.51-0.51-1.03-1.03-1.54-1.54
				c-2.48,4.66-4.97,9.31-7.45,13.97c-0.59,1.1,0.85,2.3,1.77,1.36c7.87-8.07,17.46-14.31,28.04-18.2
				c-0.46-0.46-0.92-0.92-1.38-1.38c-2.3,5.83-4.6,11.67-6.9,17.5c-0.51,1.29,1.36,1.79,2.06,0.87
				c4.87-6.44,10.75-12.24,17.39-16.84c6.13-4.25,13.18-7.71,20.71-8.34c1.43-0.12,1.46-2.17,0-2.25
				c-8.11-0.43-15.45,6.53-15.56,14.62c-0.01,0.94,0.95,1.29,1.69,0.97c8.03-3.39,14.93-8.9,20.13-15.89
				c-0.69-0.29-1.37-0.58-2.06-0.87c-6.87,20.55-17.48,39.78-31.22,56.53c-0.74,0.9,0.26,2.6,1.36,1.77
				c18.3-13.89,35.75-28.89,52.17-44.95c4.7-4.6,9.32-9.29,13.85-14.05c0.55-0.58,0.37-1.71-0.5-1.88
				c-7.38-1.49-17.17,4.57-14.24,13.02c1.43,4.14,5.31,6.92,9.42,8.01c5.53,1.46,10.75,0.77,16.1-0.97
				c19.28-6.26,37.64-14.9,56.47-22.33c11.66-4.6,23.51-8.67,35.62-11.92c1.4-0.37,0.8-2.55-0.6-2.17
				c-18.93,5.07-37.05,12.34-55.08,19.93c-8.38,3.52-16.76,7.04-25.27,10.22c-4.38,1.63-8.79,3.17-13.24,4.59
				c-4.9,1.56-10.57,1.91-15.4-0.18c-4.15-1.8-7.87-6.47-5.55-11.06c1.97-3.91,7.03-5.8,11.18-4.96c-0.17-0.63-0.33-1.25-0.5-1.88
				c-15.71,16.5-32.43,32.02-50.06,46.44c-5.09,4.16-10.27,8.23-15.51,12.21c0.45,0.59,0.91,1.18,1.36,1.77
				c14-17.07,24.8-36.59,31.8-57.52c0.44-1.3-1.35-1.82-2.06-0.87c-4.96,6.68-11.66,11.85-19.32,15.08
				c0.56,0.32,1.13,0.65,1.69,0.97c0.1-6.92,6.43-12.74,13.31-12.37c0-0.75,0-1.5,0-2.25c-7.94,0.66-15.36,4.16-21.84,8.64
				c-6.99,4.84-13.09,10.87-18.2,17.64c0.69,0.29,1.37,0.58,2.06,0.87c2.3-5.83,4.6-11.67,6.9-17.5c0.31-0.78-0.62-1.66-1.38-1.38
				c-10.95,4.03-20.88,10.42-29.03,18.77c0.59,0.45,1.18,0.91,1.77,1.36c2.48-4.66,4.97-9.31,7.45-13.97
				c0.51-0.96-0.54-2.15-1.54-1.54c-15.08,9.22-28.9,20.41-41.04,33.26c0.63,0.36,1.25,0.73,1.88,1.09
				c2.94-10.27,8.71-19.33,14.44-28.24c0.58-0.91-0.62-2.22-1.54-1.54c-11.46,8.45-22.81,17.06-34.78,24.78
				c-11.87,7.66-24.42,14.64-37.98,18.81c-7.2,2.21-14.65,3.56-22.2,3.59C31.59,148.79,31.59,151.04,33.04,151.03L33.04,151.03z"/>
		</g>
	</g>
	<g>
		<g>
			<path class="st0" d="M123.31,85.4c0.81,1.23,1.66,2.45,2.66,3.53c0.93,1,2.1,2.03,3.48,2.3c1.49,0.3,3.17-0.33,4.39-1.17
				c1.42-0.97,2.45-2.31,3.03-3.93c0.2-0.57-0.23-1.23-0.79-1.38c-0.62-0.17-1.18,0.21-1.38,0.79c-0.39,1.09-1.16,2.05-2.13,2.68
				c-0.51,0.33-1.05,0.58-1.63,0.73c-0.52,0.14-0.83,0.16-1.25,0.02c-0.91-0.3-1.78-1.23-2.45-2c-0.73-0.85-1.37-1.77-1.98-2.71
				C124.45,83.06,122.5,84.19,123.31,85.4L123.31,85.4z"/>
		</g>
	</g>
</g>
<g>
	<g>
		<g>
			<path class="st1" d="M53.49,133.3c19.93-12.16,35.99-30.45,45.59-51.72c2.69-5.95,4.88-12.11,6.52-18.42c0.37-1.4-1.8-2-2.17-0.6
				c-5.76,22.12-18.33,42.26-35.49,57.34c-4.86,4.27-10.07,8.09-15.59,11.46C51.12,132.11,52.25,134.06,53.49,133.3L53.49,133.3z"/>
		</g>
	</g>
	<g>
		<g>
			<path class="st1" d="M104.82,61.34c-1.93-1.92-3.02-4.53-2.87-7.27c0.16-2.99,1.71-5.72,2.89-8.4c2.43-5.49,4-11.27,4.75-17.22
				c-0.74,0.1-1.47,0.2-2.21,0.3c1.57,5.95,1.42,12.33,1.19,18.44c-0.19,5.18-0.92,10.76-4.59,14.72c-0.98,1.06,0.6,2.66,1.59,1.59
				c3.92-4.23,4.95-9.97,5.21-15.54c0.32-6.54,0.44-13.44-1.24-19.82c-0.35-1.32-2.06-0.88-2.21,0.3
				c-0.84,6.69-3.01,12.8-5.74,18.93c-1.18,2.66-2.18,5.47-1.84,8.43c0.31,2.71,1.53,5.19,3.46,7.11
				C104.26,63.95,105.85,62.36,104.82,61.34L104.82,61.34z"/>
		</g>
	</g>
	<g>
		<g>
			<path class="st1" d="M96,82.93c-9.33-5.39-10.34-17.25-10.94-26.88c-0.64,0.27-1.28,0.53-1.92,0.8
				C91,63.91,95.31,74.35,94.73,84.9c-0.08,1.45,2.17,1.44,2.25,0c0.61-11.09-3.99-22.21-12.25-29.64c-0.67-0.61-1.98-0.24-1.92,0.8
				c0.65,10.48,1.96,22.98,12.06,28.82C96.12,85.6,97.25,83.65,96,82.93L96,82.93z"/>
		</g>
	</g>
	<g>
		<g>
			<path class="st1" d="M89.19,100.48C87.6,86.54,74.62,78.22,69.98,65.6c-0.42-1.13-2.24-1.05-2.21,0.3
				c0.16,8.06,1.99,16.01,5.41,23.31c2.72,5.81,7.1,12.11,14.08,12.6c1.44,0.1,1.44-2.15,0-2.25c-6.41-0.45-10.18-7.1-12.52-12.31
				c-3.01-6.7-4.58-14.01-4.72-21.35c-0.74,0.1-1.47,0.2-2.21,0.3c2.32,6.31,6.55,11.54,10.54,16.86c3.9,5.19,7.83,10.8,8.59,17.42
				C87.1,101.9,89.36,101.91,89.19,100.48L89.19,100.48z"/>
		</g>
	</g>
	<g>
		<g>
			<path class="st1" d="M98.41,83.28c6.53-7.83,14.82-13.58,23.22-19.21c-0.55-0.42-1.1-0.85-1.65-1.27
				c-2.78,9.5-11.53,16.88-21.41,17.9c-1.43,0.15-1.44,2.4,0,2.25c10.89-1.12,20.49-9.02,23.57-19.55c0.26-0.9-0.83-1.82-1.65-1.27
				c-8.55,5.73-17.03,11.6-23.68,19.56C95.9,82.79,97.48,84.39,98.41,83.28L98.41,83.28z"/>
		</g>
	</g>
	<g>
		<g>
			<path class="st1" d="M88.64,101.75c6.66-6.71,17.21-7.22,23.8-14.09c-0.63-0.36-1.25-0.73-1.88-1.09
				c-1.85,4.48-4.16,9.04-7.9,12.24c-1.93,1.65-4.25,2.79-6.74,3.26c-1.41,0.26-2.87,0.3-4.29,0.14c-0.66-0.08-1.32-0.21-1.96-0.39
				c-0.34-0.09-0.67-0.19-1-0.31c-0.13-0.05-0.26-0.1-0.39-0.14c-0.5-0.33-0.57-0.19-0.22,0.44c-0.32,0.19-0.65,0.37-0.97,0.56
				c0.09-0.01,0.17-0.02,0.26-0.03c1.42-0.17,1.44-2.42,0-2.25c-1.44,0.17-2.15,1.75-0.95,2.8c1.17,1.04,3.34,1.33,4.83,1.52
				c3.48,0.45,7.07-0.22,10.13-1.94c5.75-3.24,8.96-9.41,11.38-15.29c0.44-1.07-1.15-1.85-1.88-1.09
				c-6.56,6.83-17.12,7.35-23.8,14.09C86.02,101.19,87.61,102.78,88.64,101.75L88.64,101.75z"/>
		</g>
	</g>
	<g>
		<g>
			<path class="st1" d="M251.88,36.88c6.99,9.1,18.28,13.03,29.23,14.84c13.4,2.22,27.16,2.13,40.56-0.07
				c7.6-1.25,15.07-3.22,22.31-5.84c1.35-0.49,0.77-2.67-0.6-2.17c-12.44,4.52-25.56,7.04-38.79,7.41c-6.54,0.18-13.1-0.14-19.59-1
				c-5.59-0.74-11.18-1.89-16.45-3.92c-5.66-2.18-11-5.52-14.73-10.38C252.95,34.61,251,35.73,251.88,36.88L251.88,36.88z"/>
		</g>
	</g>
	<g>
		<g>
			<path class="st1" d="M252.01,35.43c-2.61-1.09-4.81-2.47-6.65-4.65c-1.68-1.99-2.93-4.33-4-6.7c-2.31-5.13-3.79-10.65-7.21-15.21
				c-0.51,0.51-1.03,1.03-1.54,1.54c8.87,6.77,15.77,16.01,19.75,26.43c0.51,1.34,2.69,0.76,2.17-0.6
				c-4.22-11.02-11.41-20.62-20.79-27.77c-0.88-0.67-2.2,0.66-1.54,1.54c3.65,4.87,5.09,10.85,7.7,16.27
				c1.15,2.39,2.55,4.7,4.36,6.67c2.01,2.19,4.43,3.53,7.15,4.66C252.75,38.15,253.33,35.98,252.01,35.43L252.01,35.43z"/>
		</g>
	</g>
	<g>
		<g>
			<path class="st1" d="M263.35,43.23c-5.74-6.56-2.99-16.36-4.02-24.21c-0.7,0.19-1.4,0.38-2.1,0.57c2.27,3.68,4.3,7.58,5.78,11.66
				c1.48,4.11,2,8.4-0.56,12.18c-0.81,1.2,1.14,2.33,1.94,1.14c2.68-3.96,2.54-8.65,1.09-13.04c-1.51-4.58-3.78-8.98-6.31-13.07
				c-0.53-0.86-2.25-0.61-2.1,0.57c1.14,8.63-1.63,18.59,4.68,25.8C262.71,45.91,264.3,44.31,263.35,43.23L263.35,43.23z"/>
		</g>
	</g>
	<g>
		<g>
			<path class="st1" d="M262.18,44.01c-3.03-1.94-6.7,1.23-9.17,2.77c-3.39,2.12-6.79,4.24-10.18,6.37
				c-0.92,0.58-0.58,2.11,0.57,2.1c4.06-0.05,8.2-0.18,11.95-1.93c1.58-0.74,3.07-1.8,4.19-3.15c1.27-1.52,2.06-3.31,2.83-5.11
				c0.24-0.56,0.16-1.2-0.4-1.54c-0.47-0.28-1.3-0.15-1.54,0.4c-0.66,1.56-1.33,3.18-2.38,4.53c-1.01,1.29-2.36,2.24-3.84,2.92
				c-3.35,1.56-7.19,1.57-10.81,1.62c0.19,0.7,0.38,1.4,0.57,2.1c2.98-1.87,5.97-3.73,8.95-5.6c1.44-0.9,2.87-1.81,4.32-2.7
				c1.07-0.65,2.59-1.63,3.81-0.84C262.27,46.73,263.4,44.79,262.18,44.01L262.18,44.01z"/>
		</g>
	</g>
	<g>
		<g>
			<path class="st1" d="M283.01,50.13c-2.15-4.64-6.56-8.13-8.01-13.1c-0.88-2.99-0.19-6.14,0.02-9.18
				c0.24-3.38-0.02-6.77-0.29-10.15c-0.64,0.27-1.28,0.53-1.92,0.8c7.04,9,7.45,20.87,7.62,31.81c0.02,1.45,2.27,1.45,2.25,0
				c-0.18-11.64-0.82-23.85-8.28-33.4c-0.59-0.76-1.99-0.13-1.92,0.8c0.27,3.45,0.54,6.92,0.27,10.38c-0.25,3.19-0.83,6.4,0.08,9.54
				c1.51,5.21,5.99,8.81,8.23,13.64C281.68,52.58,283.62,51.44,283.01,50.13L283.01,50.13z"/>
		</g>
	</g>
	<g>
		<g>
			<path class="st1" d="M68.67,120.56c3.5-13.36-6.96-24.48-10.13-36.69c-0.27-1.05-1.92-1.09-2.17,0
				c-2.91,12.8-2.32,30.19,10.8,37.27c1.27,0.69,2.41-1.25,1.14-1.94c-12.17-6.57-12.44-22.91-9.76-34.73c-0.72,0-1.45,0-2.17,0
				c3.03,11.65,13.46,22.79,10.13,35.49C66.14,121.36,68.31,121.96,68.67,120.56L68.67,120.56z"/>
		</g>
	</g>
	<g>
		<g>
			<path class="st1" d="M69.59,121.26c3.55-3.31,8.43-4.4,13.06-5.32c4.8-0.95,9.75-1.9,13.8-4.82c-0.55-0.42-1.1-0.85-1.65-1.27
				c-1.79,4.87-5.96,8.35-10.35,10.84c-2.46,1.39-5.14,2.68-7.99,2.96c-1.3,0.13-2.62,0.05-3.88-0.3c-0.58-0.16-1.14-0.38-1.67-0.66
				c-0.28-0.15-0.55-0.31-0.81-0.49c-0.12-0.1-0.25-0.19-0.37-0.29c-0.3-0.4-0.4-0.33-0.3,0.22c0.82-1.2-1.13-2.32-1.94-1.14
				c-1.79,2.6,4.18,4.55,5.8,4.8c3.49,0.54,6.91-0.46,10.04-1.97c5.83-2.81,11.34-7.13,13.64-13.37c0.33-0.89-0.87-1.84-1.65-1.27
				c-8.15,5.9-19.72,3.41-27.31,10.49C66.94,120.66,68.54,122.25,69.59,121.26L69.59,121.26z"/>
		</g>
	</g>
	<g>
		<g>
			<path class="st1" d="M280.65,49.69c-13.04,1.37-23.39,9.79-33.06,17.93c-1.05,0.88,0.29,2.26,1.36,1.77
				c7.06-3.21,15.15-2.43,22.34-5.2c3.25-1.25,6.2-3.18,8.59-5.72c1.13-1.2,2.15-2.53,3-3.94c0.84-1.39,1.42-2.83,0.32-4.24
				c-0.89-1.14-2.47,0.46-1.59,1.59c0.42,0.54-1.95,3.4-2.29,3.82c-0.98,1.2-2.1,2.31-3.32,3.27c-2.57,2.03-5.57,3.31-8.73,4.09
				c-6.48,1.62-13.29,1.56-19.46,4.37c0.45,0.59,0.91,1.18,1.36,1.77c9.15-7.7,19.11-15.97,31.47-17.27
				C282.07,51.79,282.09,49.54,280.65,49.69L280.65,49.69z"/>
		</g>
	</g>
	<g>
		<g>
			<path class="st1" d="M306.5,50.87c-1.33-2.57-3.77-4.27-5.23-6.74c-1.64-2.75-2.38-6.11-3.28-9.16
				c-1.99-6.72-3.68-13.52-5.09-20.39c-0.55,0.42-1.1,0.85-1.65,1.27c5.05,3.82,8.21,9.53,10.4,15.36c1.09,2.89,1.98,5.86,2.81,8.83
				c1.04,3.75,2.17,7.69,1.16,11.57c-0.36,1.4,1.8,2,2.17,0.6c1.05-4.04,0.12-8.1-0.96-12.03c-0.92-3.35-1.91-6.69-3.15-9.93
				c-2.42-6.31-5.83-12.21-11.3-16.34c-0.85-0.65-1.83,0.42-1.65,1.27c1.44,7.02,3.18,13.98,5.23,20.85
				c0.91,3.03,1.69,6.28,3.27,9.05c1.46,2.56,3.98,4.3,5.34,6.92C305.22,53.29,307.16,52.15,306.5,50.87L306.5,50.87z"/>
		</g>
	</g>
	<g>
		<g>
			<path class="st1" d="M306.39,50.57c-3.26,1.59-6.55,3.23-9.19,5.78c-2.25,2.17-3.94,4.87-5.32,7.66
				c-2.82,5.67-4.57,12.05-8.77,16.93c-0.78,0.9,0.24,2.54,1.36,1.77c10.57-7.28,22.85-16.42,22.87-30.63c0-1.45-2.25-1.45-2.25,0
				c-0.01,13.32-11.88,21.9-21.75,28.69c0.45,0.59,0.91,1.18,1.36,1.77c4.11-4.78,6-10.8,8.65-16.41c1.3-2.75,2.81-5.46,4.94-7.67
				c2.58-2.68,5.93-4.32,9.24-5.93C308.83,51.88,307.69,49.94,306.39,50.57L306.39,50.57z"/>
		</g>
	</g>
	<g>
		<g>
			<path class="st1" d="M321.8,64.24c11.45-1.46,22.48-5.16,32.46-10.97c1.25-0.73,0.12-2.67-1.14-1.94
				c-9.61,5.6-20.29,9.26-31.32,10.67C320.38,62.17,320.36,64.42,321.8,64.24L321.8,64.24z"/>
		</g>
	</g>
	<g>
		<g>
			<path class="st1" d="M42.51,119.9c-7.33,5.57-15.64,9.65-24.53,12.02c-1.4,0.37-0.8,2.54,0.6,2.17
				c9.06-2.42,17.6-6.58,25.06-12.25C44.78,120.98,43.66,119.02,42.51,119.9L42.51,119.9z"/>
		</g>
	</g>
	<g>
		<g>
			<path class="st1" d="M135.78,102.86c7.29-7.27,15.84-13.12,25.25-17.31c1.32-0.59,0.18-2.53-1.14-1.94
				c-9.57,4.26-18.29,10.27-25.7,17.66C133.16,102.3,134.75,103.89,135.78,102.86L135.78,102.86z"/>
		</g>
	</g>
	<g>
		<g>
			<path class="st1" d="M187.57,114.82c-4.64,8.19-10.12,15.88-16.37,22.93c-0.96,1.08,0.63,2.68,1.59,1.59
				c6.37-7.19,11.98-15.02,16.72-23.38C190.23,114.69,188.29,113.55,187.57,114.82L187.57,114.82z"/>
		</g>
	</g>
</g>
</svg>
